<svg xmlns="http://www.w3.org/2000/svg" viewBox="17 163 1983 866" fill="none">
  <path d="M1298 173h34l19 3 12 4 11 6 12 11 7 8 7 12 4 12 3 18 1 14 1 85 3 134 2 18 5 21 8 16 11 14 12 13 10 10 16 12 14 8 16 8 19 9 63 28 47 20 25 10 8 2h12l5-5 2-5v-10l-6-12-13-18-28-40-13-18-13-19-16-23-12-17-15-22-10-15-9-16-7-19-2-10v-26l4-16 8-16 9-13 16-16 18-12 19-9 20-6 18-3h33l19 3 20 6 17 8 18 12 13 11 17 17 9 11 13 17 28 40 16 23 13 19 16 23 16 24 15 22 12 18 11 17 13 21 11 23 10 28 7 27 5 26 2 17 1 15v23l-2 24-4 23-7 25-7 20-9 20-10 18-12 18-10 13-9 10-7 8-9 9-8 7-16 13-20 14-19 11-16 8-19 8-25 8-23 5-14 2-13 1h-445l-1081-3-31-1-21-3-15-5-10-6-10-9-7-9-9-17-13-34-19-51-21-56-20-55-2-10v-27l3-15 5-13 12-23 13-23 28-50 16-28 13-23 15-26 8-10 10-10 14-9 13-5 13-2 13 1 13 4 11 7 8 7 9 13 7 14 6 18 16 66 9 32 7 20 7 11 7 8 12 9 15 6 14 3 10 1 673 3h105l3-3 1-6-4-4-41-17-35-14-44-18-40-16-49-20-25-9-18-4-16-2-14-1h-16l-32 2-35 5-57 10-120 23-36 6-10 1h-32l-19-4-13-5-11-6-9-7-10-9-10-12-36-54-14-22-12-19-14-22-8-14-5-15-2-10v-22l4-16 8-15 9-10 10-8 14-8 14-5 12-2h20l33 4 106 16 300 46 24 3h23l18-3 16-5 16-8 12-8 11-10 8-7 11-11 7-8 21-21 7-8 8-8 7-8 13-13 7-8 14-15 16-17 14-15 11-12 7-7 7-8 21-21 14-11 14-9 17-8 18-6 24-5zm6 60-27 2-21 4-16 6-16 10-13 12-14 14-7 8-9 9-7 8-7 7-7 8-7 7-7 8-9 9-7 8-15 16-9 9-7 8-10 10-7 8-21 21-7 8-13 13-8 7-14 11-18 11-19 9-22 7-21 4-8 1h-34l-49-7-184-28-130-20-81-12-16-2h-12l-10 4-5 4-1 2v10l4 10 11 17 13 21 22 34 26 39 10 13 8 6 10 4 5 1h19l23-3 171-32 49-8 27-3 21-1h26l26 2 23 4 24 7 84 33 35 14 46 18 82 33 16 7 13 8 10 8 7 8 6 12 3 13v18l-4 14-6 11-8 9-10 7-10 5-14 4-9 1h-51l-354-2-109-1-243-1-63-1-27-4-24-8-17-9-13-10-12-11-9-11-7-11-6-12-9-25-12-45-15-60-4-8-1-1h-8l-4 5-13 23-10 18-13 24-13 23-26 48-13 23-4 9-1 4v15l9 26 21 56 17 46 15 39 9 24 5 8 7 3 1275 4h278l23-2 19-4 17-5 23-10 20-11 17-12 14-11 15-14 11-12 11-15 12-20 9-19 7-20 4-15 4-24 1-16v-14l-2-24-4-23-7-26-8-21-10-21-14-22-29-43-8-12-11-16-26-38-14-20-11-16-12-17-13-18-11-14-12-13-12-11-11-7-13-6-13-3-7-1h-21l-15 3-12 4-11 6-10 9-6 7-4 9v12l5 13 13 21 10 14 16 23 11 16 36 51 14 20 12 17 14 20 8 16 4 12 2 13v9l-2 13-5 15-6 11-9 12-7 7-11 7-15 5-14 2-16-1-18-4-18-6-42-18-39-17-25-11-33-15-29-14-14-8-17-13-13-11-18-18-18-22-9-15-8-19-6-22-3-20-1-11-3-143-1-75-2-20-3-8-4-4-11-2z" fill="white" fill-rule="evenodd"/>
</svg>
